{
	"buffers":[{
		"uri":"data:application/octet-stream;base64,",
		"byteLength":1936
	},
	{
		"uri":"data:application/octet-stream;base64,",
		"byteLength":2420
	},
	{
		"uri":"data:application/octet-stream;base64,",
		"byteLength":143752
	},
	{
		"uri":"data:application/octet-stream;base64,",
		"byteLength":2420
	},
	{
		"uri":"data:application/octet-stream;base64,",
		"byteLength":2420
	},
	{
		"uri":"data:application/octet-stream;base64,",
		"byteLength":47184
	},
	{
		"uri":"data:application/octet-stream;base64,",
		"byteLength":9648
	},
	{
		"uri":"data:application/octet-stream;base64,",
		"byteLength":8296
	},
	{
		"uri":"data:application/octet-stream;base64,",
		"byteLength":512
	},
	{
		"uri":"data:application/octet-stream;base64,",
		"byteLength":512
	},
	{
		"uri":"data:application/octet-stream;base64,",
		"byteLength":512
	}],
	"asset":{
		"version":"2.0",
		"generator":"Created using the official Cinema 4D glTF Exporter 1.000x284978"
	},
	"scenes":[{
		"nodes":[0]
	}],
	"nodes":[{
		"name":"Root",
		"rotation":[0.0,
		0.0,
		0.0,
		-1.0],
		"translation":[1.450203776359558,
		469.21148681640627,
		0.0],
		"scale":[1.0,
		1.0,
		1.0],
		"children":[1,
		11]
	},
	{
		"name":"main",
		"rotation":[-0.49877452850341799,
		0.5012224912643433,
		-0.49877452850341799,
		-0.5012224912643433],
		"translation":[-0.6817816495895386,
		35.2321891784668,
		0.0],
		"scale":[1.0,
		1.0,
		1.0],
		"children":[2]
	},
	{
		"name":"hip",
		"rotation":[1.8588706319433389e-34,
		1.0,
		3.0357660829594126e-18,
		-6.123234262925839e-17],
		"translation":[-2.0954117794933128e-31,
		-1.1102230246251566e-15,
		156.95399475097657],
		"scale":[1.0,
		1.0,
		1.0],
		"children":[3,
		7,
		9]
	},
	{
		"name":"neck",
		"rotation":[-0.052487991750240329,
		-0.050762150436639789,
		-0.0023155496455729009,
		0.9973278641700745],
		"translation":[0.0,
		4.440892098500626e-16,
		156.95399475097657],
		"scale":[1.0,
		1.0,
		1.0],
		"children":[4,
		6]
	},
	{
		"name":"Sweep",
		"rotation":[-0.5043596625328064,
		0.495602011680603,
		0.5043596625328064,
		-0.495602011680603],
		"translation":[84.94923400878906,
		0.12350717186927796,
		36.822601318359378],
		"scale":[1.0,
		1.0,
		1.0],
		"children":[5]
	},
	{
		"name":"Sweep",
		"mesh":0
	},
	{
		"name":"head",
		"rotation":[-2.01030571794877e-24,
		-1.9079061118367473e-16,
		1.053671194739536e-8,
		1.0],
		"translation":[-4.675125463540978e-23,
		5.3290705182007517e-15,
		108.54427337646485],
		"scale":[1.0,
		1.0,
		1.0]
	},
	{
		"name":"r leg",
		"rotation":[-0.0011258984450250865,
		0.9990176558494568,
		0.02733573131263256,
		0.03486074134707451],
		"translation":[1.3485655598948973e-14,
		68.22466278076172,
		-32.4372444152832],
		"scale":[1.0,
		1.0,
		1.0],
		"children":[8]
	},
	{
		"name":"r shin",
		"rotation":[0.0,
		3.0320530293318287e-14,
		0.0,
		1.0],
		"translation":[1.2353656292374282e-11,
		-9.809354730946386e-15,
		207.64784240722657],
		"scale":[1.0,
		1.0,
		1.0]
	},
	{
		"name":"l leg",
		"rotation":[0.005433771759271622,
		-0.9795167446136475,
		0.0315704345703125,
		0.19879810512065888],
		"translation":[0.000001070499138222658,
		-68.53900146484375,
		-31.767663955688478],
		"scale":[1.0,
		1.0,
		1.0],
		"children":[10]
	},
	{
		"name":"l shin",
		"rotation":[1.0061396160665481e-16,
		3.0822700446482458e-16,
		3.101193898316762e-32,
		-1.0],
		"translation":[2.922263668027336e-20,
		2.2204456257338396e-15,
		207.64784240722657],
		"scale":[1.0,
		1.0,
		1.0]
	},
	{
		"name":"ghost.1",
		"rotation":[0.0,
		0.10691166669130326,
		0.0,
		0.994268536567688],
		"translation":[23.552642822265626,
		-231.3830108642578,
		14.74204158782959],
		"scale":[1.0,
		1.0,
		1.0],
		"children":[12,
		14,
		16]
	},
	{
		"name":"ghost.1-Mat",
		"rotation":[0.0,
		0.0,
		0.0,
		-1.0],
		"translation":[0.0,
		0.0,
		0.0],
		"scale":[1.0,
		1.0,
		1.0],
		"children":[13]
	},
	{
		"name":"ghost.1-Mat",
		"skin":0,
		"mesh":1
	},
	{
		"name":"ghost.1-stereo",
		"rotation":[0.0,
		0.0,
		0.0,
		-1.0],
		"translation":[0.0,
		0.0,
		0.0],
		"scale":[1.0,
		1.0,
		1.0],
		"children":[15]
	},
	{
		"name":"ghost.1-stereo",
		"skin":1,
		"mesh":2
	},
	{
		"name":"ghost.1-blackout",
		"rotation":[0.0,
		0.0,
		0.0,
		-1.0],
		"translation":[0.0,
		0.0,
		0.0],
		"scale":[1.0,
		1.0,
		1.0],
		"children":[17]
	},
	{
		"name":"ghost.1-blackout",
		"skin":2,
		"mesh":3
	}],
	"meshes":[{
		"name":"Sweep",
		"primitives":[{
			"attributes":{
				"POSITION":5,
				"NORMAL":6,
				"TEXCOORD_0":7
			},
			"indices":4,
			"material":0
		}]
	},
	{
		"name":"ghost.1-Mat",
		"primitives":[{
			"attributes":{
				"POSITION":13,
				"NORMAL":14,
				"TEXCOORD_0":15,
				"JOINTS_0":16,
				"WEIGHTS_0":17
			},
			"indices":12,
			"material":1
		}]
	},
	{
		"name":"ghost.1-stereo",
		"primitives":[{
			"attributes":{
				"POSITION":19,
				"NORMAL":20,
				"TEXCOORD_0":21,
				"JOINTS_0":22,
				"WEIGHTS_0":23
			},
			"indices":18,
			"material":2
		}]
	},
	{
		"name":"ghost.1-blackout",
		"primitives":[{
			"attributes":{
				"POSITION":25,
				"NORMAL":26,
				"TEXCOORD_0":27,
				"JOINTS_0":28,
				"WEIGHTS_0":29
			},
			"indices":24,
			"material":3
		}]
	}],
	"skins":[{
		"inverseBindMatrices":30,
		"joints":[1,
		2,
		3,
		6,
		7,
		8,
		9,
		10]
	},
	{
		"inverseBindMatrices":31,
		"joints":[1,
		2,
		3,
		6,
		7,
		8,
		9,
		10]
	},
	{
		"inverseBindMatrices":32,
		"joints":[1,
		2,
		3,
		6,
		7,
		8,
		9,
		10]
	}],
	"accessors":[{
		"min":[0.0],
		"bufferView":0,
		"count":121,
		"type":"SCALAR",
		"componentType":5126,
		"byteOffset":0,
		"max":[2.0]
	},
	{
		"min":[1.450203776359558,
		422.37176513671877,
		0.0],
		"bufferView":0,
		"count":121,
		"type":"VEC3",
		"componentType":5126,
		"byteOffset":484,
		"max":[1.450203776359558,
		482.2164611816406,
		0.0]
	},
	{
		"min":[0.0],
		"bufferView":1,
		"count":121,
		"type":"SCALAR",
		"componentType":5126,
		"byteOffset":0,
		"max":[2.0]
	},
	{
		"min":[-0.053447090089321139,
		-0.07304687052965164,
		-0.0027355775237083437,
		0.99537193775177],
		"bufferView":1,
		"count":121,
		"type":"VEC4",
		"componentType":5126,
		"byteOffset":484,
		"max":[0.07593768835067749,
		0.000010983774700434879,
		0.004976801108568907,
		0.9998888373374939]
	},
	{
		"min":[0],
		"bufferView":2,
		"count":18564,
		"type":"SCALAR",
		"componentType":5123,
		"byteOffset":0,
		"max":[3331]
	},
	{
		"min":[-35.17462158203125,
		-273.1361389160156,
		-171.10992431640626],
		"bufferView":3,
		"count":3332,
		"type":"VEC3",
		"componentType":5126,
		"byteOffset":0,
		"max":[35.17462158203125,
		32.62343215942383,
		2.6354572772979738]
	},
	{
		"min":[-0.9987173080444336,
		-1.0,
		-0.9999932050704956],
		"bufferView":3,
		"count":3332,
		"type":"VEC3",
		"componentType":5126,
		"byteOffset":12,
		"max":[0.998889148235321,
		0.9998058676719666,
		0.9999821186065674]
	},
	{
		"min":[0.009674178436398507,
		0.009674178436398507],
		"bufferView":3,
		"count":3332,
		"type":"VEC2",
		"componentType":5126,
		"byteOffset":24,
		"max":[0.6108149290084839,
		0.9903258085250855]
	},
	{
		"min":[0.0],
		"bufferView":4,
		"count":121,
		"type":"SCALAR",
		"componentType":5126,
		"byteOffset":0,
		"max":[2.0]
	},
	{
		"min":[-0.005166002083569765,
		-0.9996206164360046,
		-0.02737724594771862,
		0.002195939654484391],
		"bufferView":4,
		"count":121,
		"type":"VEC4",
		"componentType":5126,
		"byteOffset":484,
		"max":[-0.00007403311610687524,
		0.9996228814125061,
		0.027373282238841058,
		0.1602708101272583]
	},
	{
		"min":[0.0],
		"bufferView":5,
		"count":121,
		"type":"SCALAR",
		"componentType":5126,
		"byteOffset":0,
		"max":[2.0]
	},
	{
		"min":[0.000048699617764214057,
		-0.9994813799858093,
		-0.03217524290084839,
		0.0015879921847954393],
		"bufferView":5,
		"count":121,
		"type":"VEC4",
		"componentType":5126,
		"byteOffset":484,
		"max":[0.0054833292961120609,
		0.9994757175445557,
		0.03216257691383362,
		0.20061393082141877]
	},
	{
		"min":[0],
		"bufferView":6,
		"count":3768,
		"type":"SCALAR",
		"componentType":5123,
		"byteOffset":0,
		"max":[707]
	},
	{
		"min":[-132.3878631591797,
		-151.7123565673828,
		-138.00177001953126],
		"bufferView":7,
		"count":708,
		"type":"VEC3",
		"componentType":5126,
		"byteOffset":0,
		"max":[84.67914581298828,
		460.23529052734377,
		176.1426239013672]
	},
	{
		"min":[-0.999125063419342,
		-0.6924687623977661,
		-0.9998750686645508],
		"bufferView":7,
		"count":708,
		"type":"VEC3",
		"componentType":5126,
		"byteOffset":12,
		"max":[0.9986875653266907,
		1.0,
		0.9949687719345093]
	},
	{
		"min":[0.0025550476275384428,
		0.0025550476275384428],
		"bufferView":7,
		"count":708,
		"type":"VEC2",
		"componentType":5126,
		"byteOffset":24,
		"max":[0.9176037311553955,
		0.9974448680877686]
	},
	{
		"min":[0,
		0,
		0,
		0],
		"bufferView":8,
		"count":708,
		"type":"VEC4",
		"componentType":5123,
		"byteOffset":0,
		"max":[6,
		6,
		6,
		6]
	},
	{
		"min":[0.26367589831352236,
		0.0,
		0.0,
		0.0],
		"bufferView":9,
		"count":708,
		"type":"VEC4",
		"componentType":5126,
		"byteOffset":0,
		"max":[1.0,
		0.4751201570034027,
		0.27656978368759158,
		0.221408411860466]
	},
	{
		"min":[0],
		"bufferView":10,
		"count":567,
		"type":"SCALAR",
		"componentType":5123,
		"byteOffset":0,
		"max":[151]
	},
	{
		"min":[-113.00535583496094,
		392.4438171386719,
		-80.06298065185547],
		"bufferView":11,
		"count":152,
		"type":"VEC3",
		"componentType":5126,
		"byteOffset":0,
		"max":[41.702980041503909,
		426.8972473144531,
		73.06151580810547]
	},
	{
		"min":[-0.9064375162124634,
		-0.9999688267707825,
		-0.9550625681877136],
		"bufferView":11,
		"count":152,
		"type":"VEC3",
		"componentType":5126,
		"byteOffset":12,
		"max":[0.9064375162124634,
		0.8934375643730164,
		0.9064375162124634]
	},
	{
		"min":[0.4196959137916565,
		0.4933077096939087],
		"bufferView":11,
		"count":152,
		"type":"VEC2",
		"componentType":5126,
		"byteOffset":24,
		"max":[0.4248843193054199,
		0.4984852075576782]
	},
	{
		"min":[2,
		1,
		0,
		0],
		"bufferView":12,
		"count":152,
		"type":"VEC4",
		"componentType":5123,
		"byteOffset":0,
		"max":[2,
		4,
		1,
		3]
	},
	{
		"min":[0.99945068359375,
		0.0,
		0.0,
		0.0],
		"bufferView":13,
		"count":152,
		"type":"VEC4",
		"componentType":5126,
		"byteOffset":0,
		"max":[1.0,
		0.00047302967868745327,
		0.0,
		0.0]
	},
	{
		"min":[0],
		"bufferView":14,
		"count":564,
		"type":"SCALAR",
		"componentType":5123,
		"byteOffset":0,
		"max":[127]
	},
	{
		"min":[-58.99680709838867,
		354.0527648925781,
		-87.0123062133789],
		"bufferView":15,
		"count":128,
		"type":"VEC3",
		"componentType":5126,
		"byteOffset":0,
		"max":[21.234182357788087,
		401.26171875,
		-63.02623748779297]
	},
	{
		"min":[-0.808218777179718,
		-0.5337187647819519,
		-0.9988750219345093],
		"bufferView":15,
		"count":128,
		"type":"VEC3",
		"componentType":5126,
		"byteOffset":12,
		"max":[0.6111250519752502,
		0.6250937581062317,
		-0.45468753576278689]
	},
	{
		"min":[0.4173262119293213,
		0.49108558893203738],
		"bufferView":15,
		"count":128,
		"type":"VEC2",
		"componentType":5126,
		"byteOffset":24,
		"max":[0.4212213158607483,
		0.494858980178833]
	},
	{
		"min":[2,
		0,
		0,
		3],
		"bufferView":16,
		"count":128,
		"type":"VEC4",
		"componentType":5123,
		"byteOffset":0,
		"max":[2,
		1,
		1,
		3]
	},
	{
		"min":[0.9997711181640625,
		0.0,
		0.0,
		0.0],
		"bufferView":17,
		"count":128,
		"type":"VEC4",
		"componentType":5126,
		"byteOffset":0,
		"max":[1.0,
		0.00015259021893143654,
		0.0,
		0.0]
	},
	{
		"min":[-0.2125978022813797,
		-0.9803398251533508,
		-0.004783922806382179,
		0.0,
		-0.06971539556980133,
		-0.09959032386541367,
		-0.9999880194664002,
		0.0,
		-0.9771397709846497,
		0.1895541101694107,
		-0.08066548407077789,
		0.0,
		-41.732078552246097,
		-97.76756286621094,
		-266.49334716796877,
		1.0],
		"bufferView":18,
		"count":8,
		"type":"MAT4",
		"componentType":5126,
		"byteOffset":0,
		"max":[0.2125978022813797,
		-0.9701185822486877,
		0.11927217990159989,
		0.0,
		0.38979992270469668,
		0.05942711606621742,
		0.9999880194664002,
		0.0,
		0.9771397709846497,
		0.22125042974948884,
		0.39286524057388308,
		0.0,
		20.11353874206543,
		47.89524841308594,
		373.3866271972656,
		1.0]
	},
	{
		"min":[-0.2125978022813797,
		-0.9803398251533508,
		-0.004783922806382179,
		0.0,
		-0.06971539556980133,
		-0.09959032386541367,
		-0.9999880194664002,
		0.0,
		-0.9771397709846497,
		0.1895541101694107,
		-0.08066548407077789,
		0.0,
		-41.732078552246097,
		-97.76756286621094,
		-266.49334716796877,
		1.0],
		"bufferView":19,
		"count":8,
		"type":"MAT4",
		"componentType":5126,
		"byteOffset":0,
		"max":[0.2125978022813797,
		-0.9701185822486877,
		0.11927217990159989,
		0.0,
		0.38979992270469668,
		0.05942711606621742,
		0.9999880194664002,
		0.0,
		0.9771397709846497,
		0.22125042974948884,
		0.39286524057388308,
		0.0,
		20.11353874206543,
		47.89524841308594,
		373.3866271972656,
		1.0]
	},
	{
		"min":[-0.2125978022813797,
		-0.9803398251533508,
		-0.004783922806382179,
		0.0,
		-0.06971539556980133,
		-0.09959032386541367,
		-0.9999880194664002,
		0.0,
		-0.9771397709846497,
		0.1895541101694107,
		-0.08066548407077789,
		0.0,
		-41.732078552246097,
		-97.76756286621094,
		-266.49334716796877,
		1.0],
		"bufferView":20,
		"count":8,
		"type":"MAT4",
		"componentType":5126,
		"byteOffset":0,
		"max":[0.2125978022813797,
		-0.9701185822486877,
		0.11927217990159989,
		0.0,
		0.38979992270469668,
		0.05942711606621742,
		0.9999880194664002,
		0.0,
		0.9771397709846497,
		0.22125042974948884,
		0.39286524057388308,
		0.0,
		20.11353874206543,
		47.89524841308594,
		373.3866271972656,
		1.0]
	}],
	"bufferViews":[{
		"buffer":0,
		"byteOffset":0,
		"byteLength":1936
	},
	{
		"buffer":1,
		"byteOffset":0,
		"byteLength":2420
	},
	{
		"buffer":2,
		"byteOffset":0,
		"byteLength":37128,
		"target":34963
	},
	{
		"buffer":2,
		"byteStride":32,
		"byteOffset":37128,
		"byteLength":106624,
		"target":34962
	},
	{
		"buffer":3,
		"byteOffset":0,
		"byteLength":2420
	},
	{
		"buffer":4,
		"byteOffset":0,
		"byteLength":2420
	},
	{
		"buffer":5,
		"byteOffset":0,
		"byteLength":7536,
		"target":34963
	},
	{
		"buffer":5,
		"byteStride":32,
		"byteOffset":7536,
		"byteLength":22656,
		"target":34962
	},
	{
		"buffer":5,
		"byteOffset":30192,
		"byteLength":5664,
		"target":34962
	},
	{
		"buffer":5,
		"byteOffset":35856,
		"byteLength":11328,
		"target":34962
	},
	{
		"buffer":6,
		"byteOffset":0,
		"byteLength":1134,
		"target":34963
	},
	{
		"buffer":6,
		"byteStride":32,
		"byteOffset":1136,
		"byteLength":4864,
		"target":34962
	},
	{
		"buffer":6,
		"byteOffset":6000,
		"byteLength":1216,
		"target":34962
	},
	{
		"buffer":6,
		"byteOffset":7216,
		"byteLength":2432,
		"target":34962
	},
	{
		"buffer":7,
		"byteOffset":0,
		"byteLength":1128,
		"target":34963
	},
	{
		"buffer":7,
		"byteStride":32,
		"byteOffset":1128,
		"byteLength":4096,
		"target":34962
	},
	{
		"buffer":7,
		"byteOffset":5224,
		"byteLength":1024,
		"target":34962
	},
	{
		"buffer":7,
		"byteOffset":6248,
		"byteLength":2048,
		"target":34962
	},
	{
		"buffer":8,
		"byteOffset":0,
		"byteLength":512
	},
	{
		"buffer":9,
		"byteOffset":0,
		"byteLength":512
	},
	{
		"buffer":10,
		"byteOffset":0,
		"byteLength":512
	}],
	"materials":[{
		"pbrMetallicRoughness":{
			"baseColorFactor":[1.0,
			0.7666666666666668,
			0.0,
			0.4],
			"metallicFactor":0.0,
			"roughnessFactor":0.97
		},
		"emissiveFactor":[0.0,
		0.0,
		0.0],
		"alphaMode":"BLEND",
		"doubleSided":false,
		"name":"stereo.1"
	},
	{
		"pbrMetallicRoughness":{
			"baseColorFactor":[0.8,
			0.8,
			0.8,
			0.0],
			"metallicFactor":0.0,
			"roughnessFactor":0.97
		},
		"emissiveFactor":[0.0,
		0.0,
		0.0],
		"alphaMode":"BLEND",
		"doubleSided":false,
		"name":"Mat"
	},
	{
		"pbrMetallicRoughness":{
			"baseColorFactor":[0.6,
			0.156,
			0.6,
			0.4],
			"metallicFactor":0.0,
			"roughnessFactor":0.97
		},
		"emissiveFactor":[0.0,
		0.0,
		0.0],
		"alphaMode":"BLEND",
		"doubleSided":false,
		"name":"stereo"
	},
	{
		"pbrMetallicRoughness":{
			"baseColorFactor":[0.0,
			0.0,
			0.0,
			1.0],
			"metallicFactor":1.0,
			"roughnessFactor":1.0
		},
		"emissiveFactor":[0.0,
		0.0,
		0.0],
		"alphaMode":"OPAQUE",
		"doubleSided":false,
		"name":"blackout"
	}],
	"animations":[{
		"samplers":[{
			"input":0,
			"interpolation":"LINEAR",
			"output":1
		},
		{
			"input":2,
			"interpolation":"LINEAR",
			"output":3
		},
		{
			"input":8,
			"interpolation":"LINEAR",
			"output":9
		},
		{
			"input":10,
			"interpolation":"LINEAR",
			"output":11
		}],
		"channels":[{
			"sampler":0,
			"target":{
				"node":0,
				"path":"translation"
			}
		},
		{
			"sampler":1,
			"target":{
				"node":3,
				"path":"rotation"
			}
		},
		{
			"sampler":2,
			"target":{
				"node":7,
				"path":"rotation"
			}
		},
		{
			"sampler":3,
			"target":{
				"node":9,
				"path":"rotation"
			}
		}]
	}]
}