{
	"buffers":[{
		"uri":"data:application/octet-stream;base64,",
		"byteLength":4620
	},
	{
		"uri":"data:application/octet-stream;base64,",
		"byteLength":189912
	},
	{
		"uri":"data:application/octet-stream;base64,",
		"byteLength":4236
	},
	{
		"uri":"data:application/octet-stream;base64,",
		"byteLength":109908
	},
	{
		"uri":"data:application/octet-stream;base64,",
		"byteLength":9492
	},
	{
		"uri":"data:application/octet-stream;base64,",
		"byteLength":9492
	},
	{
		"uri":"data:application/octet-stream;base64,",
		"byteLength":9492
	},
	{
		"uri":"data:application/octet-stream;base64,",
		"byteLength":9492
	}],
	"asset":{
		"version":"2.0",
		"generator":"Created using the official Cinema 4D glTF Exporter 1.000x284978"
	},
	"scenes":[{
		"nodes":[0]
	}],
	"nodes":[{
		"name":"Body",
		"rotation":[-4.942114273376319e-8,
		-1.0,
		-6.746694793946517e-7,
		-6.200550046742137e-7],
		"translation":[0.009750724770128727,
		0.006130611523985863,
		0.03803648427128792],
		"scale":[1.1391915082931519,
		1.1391942501068116,
		1.1391899585723878],
		"children":[1,
		2,
		3,
		4,
		5,
		6,
		7,
		8]
	},
	{
		"name":"Body-Glass Light",
		"rotation":[-4.440892098500626e-16,
		0.0,
		0.0,
		-1.0],
		"translation":[0.0,
		0.0,
		0.0],
		"scale":[1.0,
		1.0,
		1.0],
		"mesh":0
	},
	{
		"name":"Body-Textures 2",
		"mesh":1
	},
	{
		"name":"Body-Glass",
		"mesh":2
	},
	{
		"name":"Body-Textures 1",
		"mesh":3
	},
	{
		"name":"Wheel_FL",
		"rotation":[-7.440020226567867e-7,
		-0.7071077227592468,
		-2.1013714501805226e-7,
		-0.707105815410614],
		"translation":[-0.003927920944988728,
		-0.0003458918072283268,
		0.05678493157029152],
		"scale":[0.700218141078949,
		0.7002184391021729,
		0.7002220749855042],
		"mesh":4
	},
	{
		"name":"Wheel_BL",
		"rotation":[-7.440020226567867e-7,
		-0.7071077227592468,
		-2.1013714501805226e-7,
		-0.707105815410614],
		"translation":[-0.003927972633391619,
		-0.0003458424471318722,
		0.013270486146211625],
		"scale":[0.700218141078949,
		0.7002184391021729,
		0.7002220749855042],
		"mesh":5
	},
	{
		"name":"Wheel_BR",
		"rotation":[-0.707105815410614,
		-4.4233649987290848e-7,
		0.7071077227592468,
		5.118032504469738e-7],
		"translation":[0.021057354286313058,
		-0.00034584387321956456,
		0.013270455412566662],
		"scale":[0.7002163529396057,
		0.70022052526474,
		0.7002264261245728],
		"mesh":6
	},
	{
		"name":"Wheel_FR",
		"rotation":[-0.707105815410614,
		-4.4233649987290848e-7,
		0.7071077227592468,
		5.118032504469738e-7],
		"translation":[0.021057400852441789,
		-0.00034589634742587805,
		0.05678490176796913],
		"scale":[0.7002163529396057,
		0.70022052526474,
		0.7002264261245728],
		"mesh":7
	}],
	"meshes":[{
		"name":"Body-Glass Light",
		"primitives":[{
			"attributes":{
				"POSITION":1
			},
			"indices":0,
			"material":0
		}]
	},
	{
		"name":"Body-Textures 2",
		"primitives":[{
			"attributes":{
				"POSITION":3
			},
			"indices":2,
			"material":1
		}]
	},
	{
		"name":"Body-Glass",
		"primitives":[{
			"attributes":{
				"POSITION":5
			},
			"indices":4,
			"material":2
		}]
	},
	{
		"name":"Body-Textures 1",
		"primitives":[{
			"attributes":{
				"POSITION":7
			},
			"indices":6,
			"material":3
		}]
	},
	{
		"name":"Wheel_FL",
		"primitives":[{
			"attributes":{
				"POSITION":9
			},
			"indices":8,
			"material":4
		}]
	},
	{
		"name":"Wheel_BL",
		"primitives":[{
			"attributes":{
				"POSITION":11
			},
			"indices":10,
			"material":4
		}]
	},
	{
		"name":"Wheel_BR",
		"primitives":[{
			"attributes":{
				"POSITION":13
			},
			"indices":12,
			"material":4
		}]
	},
	{
		"name":"Wheel_FR",
		"primitives":[{
			"attributes":{
				"POSITION":15
			},
			"indices":14,
			"material":4
		}]
	}],
	"accessors":[{
		"min":[0],
		"bufferView":0,
		"count":966,
		"type":"SCALAR",
		"componentType":5123,
		"byteOffset":0,
		"max":[223]
	},
	{
		"min":[-0.004356868099421263,
		0.003369484096765518,
		-0.0025113357696682216],
		"bufferView":1,
		"count":224,
		"type":"VEC3",
		"componentType":5126,
		"byteOffset":0,
		"max":[0.02146473526954651,
		0.009126653894782067,
		0.06753479689359665]
	},
	{
		"min":[0],
		"bufferView":2,
		"count":41052,
		"type":"SCALAR",
		"componentType":5123,
		"byteOffset":0,
		"max":[8983]
	},
	{
		"min":[-0.004266074392944574,
		0.00007111917511792853,
		0.004583155270665884],
		"bufferView":3,
		"count":8984,
		"type":"VEC3",
		"componentType":5126,
		"byteOffset":0,
		"max":[0.021373942494392396,
		0.0165513064712286,
		0.05115211382508278]
	},
	{
		"min":[0],
		"bufferView":4,
		"count":756,
		"type":"SCALAR",
		"componentType":5123,
		"byteOffset":0,
		"max":[226]
	},
	{
		"min":[-0.003939339891076088,
		0.009281527251005173,
		0.004583156667649746],
		"bufferView":5,
		"count":227,
		"type":"VEC3",
		"componentType":5126,
		"byteOffset":0,
		"max":[0.021047208458185197,
		0.015809420496225358,
		0.048007845878601077]
	},
	{
		"min":[0],
		"bufferView":6,
		"count":20556,
		"type":"SCALAR",
		"componentType":5123,
		"byteOffset":0,
		"max":[5732]
	},
	{
		"min":[-0.007139991037547588,
		-0.0029963026754558088,
		-0.004167427774518728],
		"bufferView":7,
		"count":5733,
		"type":"VEC3",
		"componentType":5126,
		"byteOffset":0,
		"max":[0.02424786053597927,
		0.017056353390216829,
		0.06981294602155686]
	},
	{
		"min":[0],
		"bufferView":8,
		"count":1728,
		"type":"SCALAR",
		"componentType":5123,
		"byteOffset":0,
		"max":[502]
	},
	{
		"min":[-0.0073188492096960548,
		-0.007207659073174,
		-0.0021503763273358347],
		"bufferView":9,
		"count":503,
		"type":"VEC3",
		"componentType":5126,
		"byteOffset":0,
		"max":[0.0073188492096960548,
		0.007207659073174,
		0.003878540126606822]
	},
	{
		"min":[0],
		"bufferView":10,
		"count":1728,
		"type":"SCALAR",
		"componentType":5123,
		"byteOffset":0,
		"max":[502]
	},
	{
		"min":[-0.0073188492096960548,
		-0.007207659073174,
		-0.0021503763273358347],
		"bufferView":11,
		"count":503,
		"type":"VEC3",
		"componentType":5126,
		"byteOffset":0,
		"max":[0.0073188492096960548,
		0.007207659073174,
		0.003878540126606822]
	},
	{
		"min":[0],
		"bufferView":12,
		"count":1728,
		"type":"SCALAR",
		"componentType":5123,
		"byteOffset":0,
		"max":[502]
	},
	{
		"min":[-0.0073188492096960548,
		-0.007207659073174,
		-0.0021503763273358347],
		"bufferView":13,
		"count":503,
		"type":"VEC3",
		"componentType":5126,
		"byteOffset":0,
		"max":[0.0073188492096960548,
		0.007207659073174,
		0.003878540126606822]
	},
	{
		"min":[0],
		"bufferView":14,
		"count":1728,
		"type":"SCALAR",
		"componentType":5123,
		"byteOffset":0,
		"max":[502]
	},
	{
		"min":[-0.0073188492096960548,
		-0.007207659073174,
		-0.0021503763273358347],
		"bufferView":15,
		"count":503,
		"type":"VEC3",
		"componentType":5126,
		"byteOffset":0,
		"max":[0.0073188492096960548,
		0.007207659073174,
		0.003878540126606822]
	}],
	"bufferViews":[{
		"buffer":0,
		"byteOffset":0,
		"byteLength":1932,
		"target":34963
	},
	{
		"buffer":0,
		"byteOffset":1932,
		"byteLength":2688,
		"target":34962
	},
	{
		"buffer":1,
		"byteOffset":0,
		"byteLength":82104,
		"target":34963
	},
	{
		"buffer":1,
		"byteOffset":82104,
		"byteLength":107808,
		"target":34962
	},
	{
		"buffer":2,
		"byteOffset":0,
		"byteLength":1512,
		"target":34963
	},
	{
		"buffer":2,
		"byteOffset":1512,
		"byteLength":2724,
		"target":34962
	},
	{
		"buffer":3,
		"byteOffset":0,
		"byteLength":41112,
		"target":34963
	},
	{
		"buffer":3,
		"byteOffset":41112,
		"byteLength":68796,
		"target":34962
	},
	{
		"buffer":4,
		"byteOffset":0,
		"byteLength":3456,
		"target":34963
	},
	{
		"buffer":4,
		"byteOffset":3456,
		"byteLength":6036,
		"target":34962
	},
	{
		"buffer":5,
		"byteOffset":0,
		"byteLength":3456,
		"target":34963
	},
	{
		"buffer":5,
		"byteOffset":3456,
		"byteLength":6036,
		"target":34962
	},
	{
		"buffer":6,
		"byteOffset":0,
		"byteLength":3456,
		"target":34963
	},
	{
		"buffer":6,
		"byteOffset":3456,
		"byteLength":6036,
		"target":34962
	},
	{
		"buffer":7,
		"byteOffset":0,
		"byteLength":3456,
		"target":34963
	},
	{
		"buffer":7,
		"byteOffset":3456,
		"byteLength":6036,
		"target":34962
	}],
	"materials":[{
		"pbrMetallicRoughness":{
			"baseColorFactor":[0.011764707043766976,
			0.011764707043766976,
			0.011764707043766976,
			0.5],
			"metallicFactor":0.0,
			"roughnessFactor":0.730000020116843
		},
		"emissiveFactor":[0.0,
		0.0,
		0.0],
		"alphaMode":"BLEND",
		"doubleSided":false,
		"name":"Glass Light"
	},
	{
		"pbrMetallicRoughness":{
			"baseColorFactor":[0.5879999995231628,
			0.5879999995231628,
			0.5879999995231628,
			1.0],
			"metallicFactor":1.0,
			"roughnessFactor":1.0
		},
		"emissiveFactor":[0.0,
		0.0,
		0.0],
		"alphaMode":"OPAQUE",
		"doubleSided":false,
		"name":"Textures 2"
	},
	{
		"pbrMetallicRoughness":{
			"baseColorFactor":[0.03921568766236305,
			0.03921568766236305,
			0.03921568766236305,
			0.7999999523162842],
			"metallicFactor":1.0,
			"roughnessFactor":1.0
		},
		"emissiveFactor":[0.0,
		0.0,
		0.0],
		"alphaMode":"BLEND",
		"doubleSided":false,
		"name":"Glass"
	},
	{
		"pbrMetallicRoughness":{
			"baseColorFactor":[0.5879999995231628,
			0.5879999995231628,
			0.5879999995231628,
			1.0],
			"metallicFactor":1.0,
			"roughnessFactor":1.0
		},
		"emissiveFactor":[0.0,
		0.0,
		0.0],
		"alphaMode":"OPAQUE",
		"doubleSided":false,
		"name":"Textures 1"
	},
	{
		"pbrMetallicRoughness":{
			"baseColorFactor":[0.5879999995231628,
			0.5879999995231628,
			0.5879999995231628,
			1.0],
			"metallicFactor":1.0,
			"roughnessFactor":1.0
		},
		"emissiveFactor":[0.0,
		0.0,
		0.0],
		"alphaMode":"OPAQUE",
		"doubleSided":false,
		"name":"Textures Wheel"
	}]
}