{
	"buffers":[{
		"uri":"data:application/octet-stream;base64,",
		"byteLength":264
	}],
	"asset":{
		"version":"2.0",
		"generator":"Created using the official Cinema 4D glTF Exporter 1.000x284978"
	},
	"scenes":[{
		"nodes":[0]
	}],
	"nodes":[{
		"name":"Platonic",
		"mesh":0
	}],
	"meshes":[{
		"name":"Platonic",
		"primitives":[{
			"attributes":{
				"POSITION":1
			},
			"indices":0
		}]
	}],
	"accessors":[{
		"min":[0],
		"bufferView":0,
		"count":60,
		"type":"SCALAR",
		"componentType":5123,
		"byteOffset":0,
		"max":[11]
	},
	{
		"min":[-0.0005285707302391529,
		-0.0005285707302391529,
		-0.0005285707302391529],
		"bufferView":1,
		"count":12,
		"type":"VEC3",
		"componentType":5126,
		"byteOffset":0,
		"max":[0.0005285707302391529,
		0.0005285707302391529,
		0.0005285707302391529]
	}],
	"bufferViews":[{
		"buffer":0,
		"byteOffset":0,
		"byteLength":120,
		"target":34963
	},
	{
		"buffer":0,
		"byteOffset":120,
		"byteLength":144,
		"target":34962
	}]
}