{
	"buffers":[{
		"uri":"data:application/octet-stream;base64,",
		"byteLength":2040
	}],
	"asset":{
		"version":"2.0",
		"generator":"Created using the official Cinema 4D glTF Exporter 1.000x284978"
	},
	"scenes":[{
		"nodes":[0]
	}],
	"nodes":[{
		"name":"Platonic",
		"rotation":[0.0,
		0.0,
		0.0,
		-1.0],
		"translation":[0.0,
		0.0,
		0.0],
		"scale":[1.0,
		1.0,
		1.0],
		"mesh":0
	}],
	"meshes":[{
		"name":"Platonic",
		"primitives":[{
			"attributes":{
				"POSITION":1,
				"NORMAL":2,
				"TEXCOORD_0":3
			},
			"indices":0
		}]
	}],
	"accessors":[{
		"min":[0],
		"bufferView":0,
		"count":60,
		"type":"SCALAR",
		"componentType":5123,
		"byteOffset":0,
		"max":[59]
	},
	{
		"min":[-33.49024200439453,
		-33.49024200439453,
		-33.49024200439453],
		"bufferView":1,
		"count":60,
		"type":"VEC3",
		"componentType":5126,
		"byteOffset":0,
		"max":[33.49024200439453,
		33.49024200439453,
		33.49024200439453]
	},
	{
		"min":[-0.9341723322868347,
		-0.9341723322868347,
		-0.9341723322868347],
		"bufferView":1,
		"count":60,
		"type":"VEC3",
		"componentType":5126,
		"byteOffset":12,
		"max":[0.9341723322868347,
		0.9341723322868347,
		0.9341723322868347]
	},
	{
		"min":[0.0,
		0.0],
		"bufferView":1,
		"count":60,
		"type":"VEC2",
		"componentType":5126,
		"byteOffset":24,
		"max":[1.0,
		0.8659999370574951]
	}],
	"bufferViews":[{
		"buffer":0,
		"byteOffset":0,
		"byteLength":120,
		"target":34963
	},
	{
		"buffer":0,
		"byteStride":32,
		"byteOffset":120,
		"byteLength":1920,
		"target":34962
	}]
}