{
	"buffers":[{
		"uri":"data:application/octet-stream;base64,",
		"byteLength":242412
	}],
	"asset":{
		"version":"2.0",
		"generator":"Created using the official Cinema 4D glTF Exporter 1.000x284978"
	},
	"scenes":[{
		"nodes":[0]
	}],
	"nodes":[{
		"name":"Landscape",
		"mesh":0
	}],
	"meshes":[{
		"name":"Landscape",
		"primitives":[{
			"attributes":{
				"POSITION":1
			},
			"indices":0
		}]
	}],
	"accessors":[{
		"min":[0],
		"bufferView":0,
		"count":60000,
		"type":"SCALAR",
		"componentType":5123,
		"byteOffset":0,
		"max":[10200]
	},
	{
		"min":[-0.001864113612100482,
		0.0,
		-0.001864113612100482],
		"bufferView":1,
		"count":10201,
		"type":"VEC3",
		"componentType":5126,
		"byteOffset":0,
		"max":[0.0018641134956851602,
		0.0005265100044198334,
		0.0018641134956851602]
	}],
	"bufferViews":[{
		"buffer":0,
		"byteOffset":0,
		"byteLength":120000,
		"target":34963
	},
	{
		"buffer":0,
		"byteOffset":120000,
		"byteLength":122412,
		"target":34962
	}]
}